REM DIRINDEX 1\2,1\3,1\4
REM DIRNAME folder01,folder02,folder03,folder04
TITLE ""
FILE "039 039_TOEFL_3900.mp3" MP3
  TRACK 01 AUDIO
    TITLE "2:cjc151_1682"
    INDEX 01 00:00:00
  TRACK 02 AUDIO
    TITLE "0:"
    INDEX 01 00:01:03
  TRACK 03 AUDIO
    TITLE "3:cjc151_1683"
    INDEX 01 00:02:57
  TRACK 04 AUDIO
    TITLE "0:"
    INDEX 01 00:05:26
  TRACK 05 AUDIO
    TITLE "2:cjc151_1684"
    INDEX 01 00:07:07
  TRACK 06 AUDIO
    TITLE "0:"
    INDEX 01 00:08:26
  TRACK 07 AUDIO
    TITLE "3:cjc151_1685"
    INDEX 01 00:10:04
  TRACK 08 AUDIO
    TITLE "0:"
    INDEX 01 00:13:73
  TRACK 09 AUDIO
    TITLE "2:cjc151_1686"
    INDEX 01 00:15:52
  TRACK 10 AUDIO
    TITLE "0:"
    INDEX 01 00:16:61
  TRACK 11 AUDIO
    TITLE "3:cjc151_1687"
    INDEX 01 00:18:39
  TRACK 12 AUDIO
    TITLE "0:"
    INDEX 01 00:22:23
  TRACK 13 AUDIO
    TITLE "2:cjc151_1688"
    INDEX 01 00:24:02
  TRACK 14 AUDIO
    TITLE "0:"
    INDEX 01 00:25:13
  TRACK 15 AUDIO
    TITLE "3:cjc151_1689"
    INDEX 01 00:26:66
  TRACK 16 AUDIO
    TITLE "0:"
    INDEX 01 00:30:24
  TRACK 17 AUDIO
    TITLE "2:cjc151_1690"
    INDEX 01 00:32:01
  TRACK 18 AUDIO
    TITLE "0:"
    INDEX 01 00:33:03
  TRACK 19 AUDIO
    TITLE "3:cjc151_1691"
    INDEX 01 00:34:57
  TRACK 20 AUDIO
    TITLE "0:"
    INDEX 01 00:38:30
  TRACK 21 AUDIO
    TITLE "2:cjc151_1692"
    INDEX 01 00:40:07
  TRACK 22 AUDIO
    TITLE "0:"
    INDEX 01 00:41:02
  TRACK 23 AUDIO
    TITLE "3:cjc151_1693"
    INDEX 01 00:42:57
  TRACK 24 AUDIO
    TITLE "0:"
    INDEX 01 00:46:06
  TRACK 25 AUDIO
    TITLE "2:cjc151_1694"
    INDEX 01 00:47:56
  TRACK 26 AUDIO
    TITLE "0:"
    INDEX 01 00:49:10
  TRACK 27 AUDIO
    TITLE "3:cjc151_1695"
    INDEX 01 00:50:64
  TRACK 28 AUDIO
    TITLE "0:"
    INDEX 01 00:54:68
  TRACK 29 AUDIO
    TITLE "2:cjc151_1696"
    INDEX 01 00:56:47
  TRACK 30 AUDIO
    TITLE "0:"
    INDEX 01 00:57:48
  TRACK 31 AUDIO
    TITLE "3:cjc151_1697"
    INDEX 01 00:59:26
  TRACK 32 AUDIO
    TITLE "0:"
    INDEX 01 01:02:26
  TRACK 33 AUDIO
    TITLE "2:cjc151_1698"
    INDEX 01 01:04:03
  TRACK 34 AUDIO
    TITLE "0:"
    INDEX 01 01:05:07
  TRACK 35 AUDIO
    TITLE "3:cjc151_1699"
    INDEX 01 01:06:61
  TRACK 36 AUDIO
    TITLE "0:"
    INDEX 01 01:10:33
  TRACK 37 AUDIO
    TITLE "2:cjc151_1700"
    INDEX 01 01:12:23
  TRACK 38 AUDIO
    TITLE "0:"
    INDEX 01 01:13:44
  TRACK 39 AUDIO
    TITLE "3:cjc151_1701"
    INDEX 01 01:15:19
  TRACK 40 AUDIO
    TITLE "0:"
    INDEX 01 01:18:06
  TRACK 41 AUDIO
    TITLE "2:cjc151_1702"
    INDEX 01 01:19:60
  TRACK 42 AUDIO
    TITLE "0:"
    INDEX 01 01:20:63
  TRACK 43 AUDIO
    TITLE "3:cjc151_1703"
    INDEX 01 01:22:44
  TRACK 44 AUDIO
    TITLE "0:"
    INDEX 01 01:26:09
  TRACK 45 AUDIO
    TITLE "2:cjc151_1704"
    INDEX 01 01:27:61
  TRACK 46 AUDIO
    TITLE "0:"
    INDEX 01 01:28:71
  TRACK 47 AUDIO
    TITLE "3:cjc151_1705"
    INDEX 01 01:30:46
  TRACK 48 AUDIO
    TITLE "0:"
    INDEX 01 01:33:70
  TRACK 49 AUDIO
    TITLE "2:cjc151_1706"
    INDEX 01 01:35:49
  TRACK 50 AUDIO
    TITLE "0:"
    INDEX 01 01:36:47
  TRACK 51 AUDIO
    TITLE "3:cjc151_1707"
    INDEX 01 01:38:24
  TRACK 52 AUDIO
    TITLE "0:"
    INDEX 01 01:41:57
  TRACK 53 AUDIO
    TITLE "2:cjc151_1708"
    INDEX 01 01:43:37
  TRACK 54 AUDIO
    TITLE "0:"
    INDEX 01 01:44:38
  TRACK 55 AUDIO
    TITLE "3:cjc151_1709"
    INDEX 01 01:46:16
  TRACK 56 AUDIO
    TITLE "0:"
    INDEX 01 01:49:33
  TRACK 57 AUDIO
    TITLE "2:cjc151_1710"
    INDEX 01 01:51:09
  TRACK 58 AUDIO
    TITLE "0:"
    INDEX 01 01:52:10
  TRACK 59 AUDIO
    TITLE "3:cjc151_1711"
    INDEX 01 01:53:61
  TRACK 60 AUDIO
    TITLE "0:"
    INDEX 01 01:57:58
  TRACK 61 AUDIO
    TITLE "2:cjc151_1712"
    INDEX 01 01:59:36
  TRACK 62 AUDIO
    TITLE "0:"
    INDEX 01 02:00:63
  TRACK 63 AUDIO
    TITLE "3:cjc151_1713"
    INDEX 01 02:02:36
  TRACK 64 AUDIO
    TITLE "0:"
    INDEX 01 02:07:02
  TRACK 65 AUDIO
    TITLE "2:cjc151_1714"
    INDEX 01 02:08:52
  TRACK 66 AUDIO
    TITLE "0:"
    INDEX 01 02:09:54
  TRACK 67 AUDIO
    TITLE "3:cjc151_1715"
    INDEX 01 02:11:31
  TRACK 68 AUDIO
    TITLE "0:"
    INDEX 01 02:14:47
  TRACK 69 AUDIO
    TITLE "2:cjc151_1716"
    INDEX 01 02:16:26
  TRACK 70 AUDIO
    TITLE "0:"
    INDEX 01 02:17:34
  TRACK 71 AUDIO
    TITLE "3:cjc151_1717"
    INDEX 01 02:19:11
  TRACK 72 AUDIO
    TITLE "0:"
    INDEX 01 02:23:07
  TRACK 73 AUDIO
    TITLE "2:cjc151_1718"
    INDEX 01 02:24:63
  TRACK 74 AUDIO
    TITLE "0:"
    INDEX 01 02:25:67
  TRACK 75 AUDIO
    TITLE "3:cjc151_1719"
    INDEX 01 02:27:42
  TRACK 76 AUDIO
    TITLE "0:"
    INDEX 01 02:31:69
  TRACK 77 AUDIO
    TITLE "2:cjc151_1720"
    INDEX 01 02:33:48
  TRACK 78 AUDIO
    TITLE "0:"
    INDEX 01 02:34:48
  TRACK 79 AUDIO
    TITLE "3:cjc151_1721"
    INDEX 01 02:36:35
  TRACK 80 AUDIO
    TITLE "0:"
    INDEX 01 02:40:25
  TRACK 81 AUDIO
    TITLE "2:cjc151_1722"
    INDEX 01 02:42:04
  TRACK 82 AUDIO
    TITLE "0:"
    INDEX 01 02:43:04
  TRACK 83 AUDIO
    TITLE "3:cjc151_1723"
    INDEX 01 02:44:56
  TRACK 84 AUDIO
    TITLE "0:"
    INDEX 01 02:48:15
  TRACK 85 AUDIO
    TITLE "2:cjc151_1724"
    INDEX 01 02:49:69
  TRACK 86 AUDIO
    TITLE "0:"
    INDEX 01 02:51:01
  TRACK 87 AUDIO
    TITLE "3:cjc151_1725"
    INDEX 01 02:52:56
  TRACK 88 AUDIO
    TITLE "0:"
    INDEX 01 02:56:46
